<svg width="22" height="22" viewBox="0 0 22 22" fill="none" xmlns="http://www.w3.org/2000/svg">
<path fill-rule="evenodd" clip-rule="evenodd" d="M19.734 4.49547C20.2618 3.68941 20.6602 3.04289 20.9409 2.54099C21.2133 2.05412 21.3999 1.66074 21.4679 1.37742C21.486 1.30205 21.5006 1.21531 21.5 1.12491C21.4994 1.03794 21.4845 0.909609 21.4082 0.783746C21.322 0.641512 21.1869 0.551497 21.0401 0.516816C20.9109 0.486299 20.7949 0.503112 20.7176 0.521724C20.5656 0.558301 20.4163 0.638876 20.2896 0.717986C20.1538 0.802795 20.0029 0.912479 19.8412 1.04014C18.5741 2.04052 16.1182 4.5703 13.4376 7.4585C10.7441 10.3605 7.78925 13.6623 5.50875 16.2374C5.40471 16.3549 5.30207 16.4709 5.20092 16.5852L11.3709 3.88255C11.463 3.69291 11.4263 3.46587 11.2791 3.31496C11.1319 3.16404 10.9058 3.12168 10.714 3.20906L10.9212 3.66409C10.714 3.20906 10.7138 3.2091 10.7137 3.20917L10.7133 3.20935L10.712 3.20996L10.7073 3.21209L10.6902 3.21997L10.6257 3.25006C10.5697 3.27639 10.488 3.31517 10.384 3.36573C10.1759 3.46681 9.87816 3.61507 9.51641 3.80506C8.79356 4.1847 7.812 4.73263 6.77895 5.40542C5.74734 6.07727 4.65497 6.8797 3.71569 7.76988C2.78094 8.65575 1.9698 9.65463 1.53828 10.7246C-0.0715305 14.7159 0.410357 18.4 1.49856 21.0385C1.50319 21.0887 1.51547 21.1387 1.53569 21.1867C1.60971 21.3624 1.7772 21.4807 1.96753 21.4917L1.9702 21.4457C1.97026 21.4457 1.97032 21.4457 1.97039 21.4457C1.96781 21.4917 1.96793 21.4917 1.96806 21.4917L1.96879 21.4918L1.97085 21.4919L1.97738 21.4922L1.99995 21.4933C2.01917 21.4941 2.04667 21.4952 2.08207 21.4962C2.15284 21.4983 2.25521 21.5003 2.38596 21.5C2.64741 21.4994 3.02281 21.49 3.48656 21.4548C4.41326 21.3846 5.6974 21.2115 7.13243 20.7993C10.0029 19.9749 13.4998 18.1859 15.9207 14.3338C16.5081 13.3991 16.8879 12.7275 17.112 12.2468C17.2238 12.0071 17.3041 11.7996 17.35 11.621C17.393 11.4537 17.4223 11.2514 17.365 11.0552C17.2942 10.8125 17.1158 10.6574 16.9109 10.594C16.7455 10.5428 16.5821 10.5565 16.4813 10.5696C16.3818 10.5825 16.277 10.6053 16.196 10.6229L16.196 10.6229L16.1836 10.6256C16.2094 10.5416 16.2462 10.4386 16.2975 10.3133C16.6631 9.42093 17.6325 7.70552 19.734 4.49547ZM2.72036 19.4034C2.7165 19.4078 2.71265 19.4122 2.7088 19.4166C2.50751 19.6464 2.33067 19.8487 2.18123 20.0198C1.35658 17.6442 1.09458 14.4981 2.46569 11.0986C2.82115 10.2173 3.5184 9.33459 4.40356 8.49571C5.28419 7.66112 6.32324 6.89559 7.32469 6.24338C8.25344 5.63851 9.14175 5.13634 9.82726 4.77183L2.72036 19.4034ZM3.31664 20.4646C3.34763 20.4624 3.37909 20.4601 3.41101 20.4577C4.28551 20.3914 5.50034 20.2277 6.85637 19.8382C9.56804 19.0593 12.8215 17.3859 15.074 13.8017C15.6549 12.8773 16.0083 12.2476 16.2057 11.8243C16.2405 11.7497 16.2695 11.6833 16.2936 11.6246C16.2226 11.639 16.1423 11.6535 16.0629 11.6618C15.9531 11.6732 15.7867 11.6802 15.6188 11.6207C15.4201 11.5502 15.2543 11.3981 15.1774 11.1722C15.1118 10.9793 15.1256 10.7749 15.1608 10.5939C15.1976 10.4047 15.2691 10.186 15.3722 9.93427C15.7793 8.94035 16.8017 7.14892 18.8974 3.94773C19.3496 3.25696 19.6987 2.69535 19.9562 2.24971C18.6605 3.39288 16.5302 5.59647 14.1705 8.13878C11.4848 11.0324 8.53589 14.3275 6.25739 16.9004C5.17265 18.1253 4.24027 19.186 3.56114 19.9612L3.31664 20.4646Z" fill="#499A18"/>
</svg>
